<?xml version="1.0" encoding="UTF-8"?>
<svg id="Layer_1" xmlns="http://www.w3.org/2000/svg" version="1.1" viewBox="0 0 595.28 841.89">
  <!-- Generator: Adobe Illustrator 29.1.0, SVG Export Plug-In . SVG Version: 2.1.0 Build 142)  -->
  <defs>
    <style>
      .st0 {
        fill: #d4c3c9;
      }

      .st0, .st1, .st2, .st3 {
        stroke: #231f20;
        stroke-miterlimit: 10;
      }

      .st4, .st5 {
        fill: #231f20;
      }

      .st5 {
        font-family: PalaceScriptMT, 'Palace Script MT';
        font-size: 77.77px;
      }

      .st1 {
        fill: #b9b2bd;
      }

      .st1, .st3 {
        stroke-width: .75px;
      }

      .st2, .st3 {
        fill: none;
      }
    </style>
  </defs>
  <g>
    <ellipse class="st0" cx="300" cy="300" rx="178.42" ry="109.02"/>
    <g>
      <path class="st4" d="M150.3,277.38c2.93,2.09,5.56,3.94,7.88,5.5,2.78,1.87,5.01,3.53,6.68,4.94,1.67,1.41,3.44,2.71,5.31,3.91.41-10.01.18-20.05.05-30.07,3.34-2.37,5.02-3.52,8.4-5.73.32-.15.52-.1.61.15.09.25-.03.49-.36.75-1.44,1.13-2.31,2.14-2.61,3-.3.87-.26,1.97.09,3.29.36,1.33,1.13,3.73,2.32,7.19,1.19,3.47,2.22,6.33,3.09,8.58,1.66,4.34,2.66,6.85,2.99,7.53.33.68.76,1.1,1.31,1.27.55.16,1.41-.04,2.6-.59.34-.15.56-.1.65.13.09.24-.07.49-.46.75-2.99,1.98-4.47,3-7.42,5.12-.77.56-1.16.84-1.93,1.41-.43.32-.69.35-.8.1-.09-.22,0-.46.27-.72.99-.95,1.6-1.71,1.82-2.27.22-.56.26-1.31.11-2.24-.15-.93-.86-3-2.14-6.21-1.65-4.61-2.47-6.92-4.11-11.55-.8-2.29-1.21-3.43-2.01-5.72-.17-.42-.31-.59-.42-.52-.17.12-.25.34-.26.67-.17,4.84-.23,7.26-.3,12.07-.11,7.7.02,12.53.18,14.57.13,1.76.2,2.64.35,4.39.1,1.34.14,2.09.11,2.25-.03.16-.1.28-.19.36-.15.12-.36.02-.64-.3-.65-.76-3.12-2.87-7.56-6.11-2.41-1.9-5.26-3.98-8.57-6.19-3.31-2.21-5.1-3.28-5.31-3.32-.21-.04-.35-.03-.41.03-.13.12-.11.36.08.73,2.58,5.45,3.87,8.17,6.46,13.6.86,1.79,1.29,2.69,2.15,4.48,1.17,2.35,2.2,3.64,3.09,3.9.89.25,1.82-.05,2.81-.9.64-.55,1.03-.66,1.19-.33.11.24.02.49-.29.75-.16.12-.24.18-.39.31-.47.42-.71.63-1.18,1.05-1.03.89-1.55,1.34-2.57,2.25-1.11,1-2.5,2.37-4.16,4.14-.2.02-.34-.03-.4-.15-.15-.29-.02-.64.39-1.05,1.18-1.16,1.81-2.45,1.91-3.9.1-1.44-.65-3.78-2.28-7-.8-1.54-1.2-2.31-1.99-3.85-1.88-4.03-2.81-6.05-4.68-10.09-1.15-2.3-2.24-3.6-3.28-3.89-1.04-.29-2.19.02-3.44.95-.54.4-.87.48-.98.26-.13-.25-.01-.56.36-.9.2-.18.44-.4.73-.64,2.85-2.54,4.28-3.77,7.18-6.17Z"/>
      <path class="st4" d="M188.86,275.61c-1-2.81-1.04-5.84-.05-9.07.99-3.23,2.79-5.63,5.37-7.12,2.42-1.4,4.83-1.58,7.17-.55,2.34,1.03,3.92,3.06,4.79,6.03.87,3,.74,6.1-.33,9.3s-2.73,5.44-5.02,6.77c-2.26,1.32-4.53,1.47-6.87.45-2.33-1.02-4.03-2.93-5.06-5.81ZM192.05,273.43c.95,2.77,2.27,4.74,3.93,5.95,1.66,1.21,3.24,1.37,4.77.49,1.4-.81,2.35-2.37,2.89-4.72.54-2.35.38-4.97-.5-7.88-.78-2.59-2.02-4.62-3.73-6.04-1.71-1.42-3.45-1.63-5.18-.62-1.61.93-2.62,2.63-3.02,5.06-.4,2.43-.11,5.02.84,7.77Z"/>
      <path class="st4" d="M211.31,251.01c.36,1.05,1.26,4.17,2.67,9.34.88,3.23,1.52,5.36,1.91,6.39.39,1.03.96,1.76,1.72,2.2.75.44,1.5.49,2.23.16.97-.44,1.79-1.43,2.5-2.98.71-1.56,1.03-3.03.96-4.42-.07-1.39-.65-4.41-1.74-9.07-.51-2.17-.93-3.43-1.26-3.79-.34-.36-.97-.39-1.85-.07-.33.12-.53.05-.6-.22-.04-.18-.02-.33.06-.43.09-.1.4-.27.94-.5,1.72-.74,2.58-1.09,4.3-1.79.55,1.8,1.07,3.85,1.59,6.14.79,3.86,1.19,5.79,1.99,9.64.44,1.97.85,3.16,1.23,3.56.38.4.87.5,1.44.37.35-.08.58.03.64.3.07.31-.24.59-.93.87-1.28.51-1.92.77-3.19,1.3-.55.23-.88.12-.99-.34-.03-.13-.06-.29-.09-.46-.08-.52-.18-1.05-.3-1.57-.1-.44-.27-1.07-.51-1.9-.65,2.09-1.41,3.79-2.31,5.1-.9,1.31-1.93,2.23-3.12,2.78-1.01.47-1.94.56-2.79.27-.85-.29-1.51-.81-1.97-1.58-.46-.77-1.2-2.87-2.24-6.31-1.03-3.44-1.82-6.15-2.37-8.13-.3-1.08-.53-1.73-.7-1.95-.17-.22-.53-.21-1.05.01-.57.23-.91.21-.98-.08-.08-.28.22-.59.9-.93,1.56-.77,2.34-1.15,3.91-1.89Z"/>
      <path class="st4" d="M233.92,241.37c.54.89,1.08,2.53,1.6,4.92.57-1.99,1.33-3.58,2.27-4.78.94-1.2,2.07-2,3.37-2.39.99-.3,1.99-.36,2.99-.19,1,.18,1.83.74,2.5,1.69.67.95,1.2,2.72,1.59,5.33.48,3.52.72,5.29,1.21,8.81.25,1.61.51,2.6.78,2.95.28.35.79.55,1.52.61.5.04.78.18.81.39.04.26-.06.42-.29.48-.1.03-.19.04-.29.05-.65,0-1.6.18-2.83.52-1.11.31-2.33.79-3.54,1.21-.48.17-.78.08-.83-.21-.04-.21.08-.39.34-.54.72-.43,1.18-.79,1.37-1.09.2-.29.31-.64.35-1.04.04-.4-.09-1.67-.37-3.82-.28-2.15-.53-3.89-.74-5.22-.59-3.65-1.36-5.98-2.32-6.96-.97-.99-2.03-1.3-3.17-.95-1.7.52-2.91,2.07-3.62,4.62s-.56,6.36.41,11.42c.44,2.3.84,3.73,1.2,4.27.36.55,1.03.73,2.01.55.31-.06.49.05.54.34.04.24-.08.41-.38.51-.43.1-.65.15-1.08.25-.39.09-1.65.49-3.77,1.25-.64.25-.97.38-1.61.64-.59.22-.92.19-.98-.08-.06-.29.22-.63.83-1.02.59-.38.95-.8,1.09-1.27.14-.46.03-1.8-.33-4-.36-2.21-.86-4.94-1.51-8.2-.6-3.04-1.15-4.86-1.64-5.48-.49-.61-1.07-.89-1.72-.84-.59.05-.92-.06-.98-.33-.06-.29.13-.52.56-.68.7-.25,1.06-.37,1.76-.61.19-.07,1.16-.45,2.92-1.11Z"/>
      <path class="st4" d="M259.48,236.79c-.85,1.21.59,7.75,1.02,11.49.34,2.88.83,4.7,1.47,5.46.65.77,1.47,1.05,2.49.85.74-.14,1.52-.64,2.35-1.48.3-.3.48-.46.55-.47.18-.03.28.08.31.32.04.42-.39,1.17-1.29,2.27-.9,1.09-2.05,1.77-3.47,2.06-1.41.28-2.54-.11-3.4-1.2-.86-1.09-1.45-2.86-1.76-5.33-.32-2.57-.75-7.01-1.27-13.33-.11-.01-.81.08-2.11.29-.53.08-.8.12-1.33.21-.32.06-.5-.03-.53-.27-.03-.23.13-.45.47-.68.56-.41,1.47-1.41,2.73-3,1.27-1.59,1.89-3.57,1.86-5.94-.01-.62.12-.97.4-1.02.28-.06.44.16.5.65.02.16.03.33.04.5.03.69.1,1.48.2,2.37.2,1.63.3,2.45.5,4.08,1.93-.43,2.9-.64,4.84-1.02.83-.15,1.29-.1,1.32.11.12.74-.02,1.49-.18,1.59-.42.26-5.1.62-5.72,1.5Z"/>
      <path class="st4" d="M280.38,250.64c-.61,1.33-1.37,2.36-2.28,3.1-.9.74-1.95,1.18-3.14,1.35-1.4.19-2.53-.12-3.42-.95-.88-.83-1.39-2.01-1.53-3.57-.1-1.16.04-2.28.44-3.36.4-1.08.9-1.89,1.5-2.42.6-.53,1.68-1.26,3.24-2.13,2.22-1.24,3.58-2.15,4-2.82.43-.67.61-1.5.56-2.49-.09-1.58-.47-2.78-1.14-3.59-.67-.81-1.58-1.15-2.72-1.01-.93.11-1.62.45-2.05,1.01-.44.57-.72,1.63-.85,3.15-.14,1.66-.65,2.56-1.53,2.69-.32.05-.69-.1-1.1-.42-.42-.33-.66-.87-.73-1.63-.11-1.32.39-2.57,1.54-3.72,1.14-1.16,2.8-1.88,4.95-2.14,1.71-.2,3.09-.06,4.13.41,1.05.47,1.72,1.08,2.01,1.8.3.72.49,2.15.6,4.27.09,2.81.13,4.22.22,7.03.13,2.71.36,4.63.67,5.75.31,1.12.82,1.65,1.52,1.6.14-.01.33-.05.58-.13.14-.03.21-.05.35-.08.32-.02.49.11.5.41.03.68-1.33,1.1-4.07,1.36-.79.07-1.34-.11-1.63-.55-.3-.44-.51-1.4-.62-2.88ZM279.77,240.3c-.39.73-1.33,1.69-2.78,2.85-1.43,1.14-2.46,2.19-3.04,3.14-.59.96-.83,2.08-.73,3.31.09,1.11.43,2.02,1.01,2.72.58.7,1.26,1.01,2.04.91.81-.1,1.55-.51,2.22-1.22.67-.71,1.15-1.57,1.44-2.57.29-1.01.38-2.47.27-4.38-.08-1.43-.22-3.02-.43-4.76Z"/>
      <path class="st4" d="M294.05,230.26c.03,2.39.05,3.59.08,5.98.06,2.23.08,3.35.14,5.58.03,1.68.04,2.52.07,4.2.01,1.28.02,1.92.03,3.19.02,1.28.2,2.08.53,2.42.33.34.83.51,1.49.54.76.03,1.15.24,1.16.59,0,.28-.14.43-.44.43-.11,0-.24,0-.38-.02-1.3-.19-2.5-.26-3.62-.22-1.78.07-3.01.21-3.69.39-.14.04-.28.07-.42.08-.33.02-.51-.13-.52-.45-.01-.32.37-.57,1.14-.73.77-.17,1.26-.41,1.47-.73.21-.32.29-1.21.26-2.66-.05-4.4-.08-6.61-.13-11.01-.07-2.94-.3-4.68-.69-5.2-.38-.52-1.13-.79-2.18-.75-.35.01-.54-.11-.55-.39,0-.16.05-.29.17-.38.12-.1,1-.27,2.64-.49,1.65-.22,2.79-.33,3.43-.37ZM291.27,217.35c.59-.02,1.12.2,1.59.68.47.48.71,1.01.72,1.6.01.69-.16,1.29-.53,1.8-.36.51-.87.78-1.53.8-.58.02-1.1-.17-1.57-.58-.47-.41-.72-.99-.74-1.73-.02-.73.16-1.33.54-1.81.38-.48.89-.74,1.52-.76Z"/>
      <path class="st4" d="M305.25,230.32c.34,1.06.53,2.83.56,5.31.94-1.71,1.98-2.98,3.12-3.79,1.14-.82,2.38-1.19,3.7-1.1,1.01.06,1.98.36,2.9.88.92.52,1.61,1.37,2.06,2.52.45,1.15.61,3.05.47,5.7-.24,3.57-.36,5.35-.59,8.92-.08,1.64-.03,2.68.17,3.12.19.44.65.81,1.34,1.13.48.22.71.45.7.66-.02.26-.14.39-.38.36-.1-.01-.19-.03-.29-.05-.63-.23-1.57-.4-2.82-.51-1.13-.1-2.4-.07-3.64-.09-.49,0-.77-.2-.76-.5,0-.21.15-.34.43-.4.78-.16,1.29-.35,1.53-.56.25-.21.43-.5.54-.88.11-.37.25-1.64.41-3.81.16-2.17.27-3.94.33-5.3.16-3.73-.12-6.24-.84-7.54-.73-1.29-1.69-1.98-2.85-2.05-1.73-.1-3.2.96-4.38,3.16-1.18,2.2-1.79,5.93-1.87,11.16-.04,2.38.07,3.89.3,4.54.23.65.84,1.07,1.81,1.24.31.05.46.22.45.52,0,.25-.16.37-.47.35-.43-.06-.65-.09-1.08-.14-.39-.05-1.67-.11-3.85-.14-.67.01-1,.02-1.67.04-.61,0-.92-.14-.92-.43,0-.3.34-.53,1-.69.64-.15,1.07-.43,1.29-.83.22-.4.38-1.72.48-3.98.09-2.25.15-5.07.18-8.44.02-3.14-.14-5.1-.49-5.87-.35-.77-.84-1.24-1.48-1.42-.58-.16-.87-.38-.87-.67,0-.3.22-.45.67-.45.72.01,1.08.02,1.81.04.19,0,1.2-.02,3.01-.02Z"/>
      <path class="st4" d="M345.7,223.33c1.89.38,2.83.58,4.71,1.01,5.93,1.48,10.14,4.49,12.53,8.71,2.39,4.22,3.04,8.85,2.09,13.81-.67,3.52-1.94,6.35-3.76,8.51-1.82,2.17-3.82,3.61-6.02,4.34-2.2.73-4.92.64-8.22-.2-.74-.19-1.68-.48-2.8-.86-2-.69-3.14-1.05-3.39-1.11-4.52-1-7.26-1.34-8.01-1.41-.43-.04-.67-.27-.64-.56.02-.21.12-.33.29-.37.17-.04.7-.05,1.57-.03,1.12.02,1.97-.4,2.52-1.24.55-.84,1.16-3.68,1.82-8.52.76-5.54,1.15-8.31,1.92-13.85.18-1.61.27-3.19.25-4.73-.02-1.54-.21-2.56-.56-3.07-.36-.51-.97-.94-1.83-1.25-.62-.23-.93-.48-.9-.78.04-.37.22-.53.54-.47.31.06,1.23.3,2.78.76,1.55.46,3.25.89,5.1,1.31ZM341.78,248.5c-.28,2.31-.36,3.99-.24,5.03.12,1.04.54,1.97,1.25,2.79.71.82,1.94,1.44,3.69,1.88,2.5.63,4.64.45,6.44-.59,1.8-1.04,3.36-2.65,4.67-4.85,1.32-2.2,2.23-4.67,2.72-7.45.72-4.11.34-8.16-1.26-12.15-1.59-3.98-4.74-6.65-9.37-7.79-2.06-.51-3.27-.7-3.63-.62-.36.08-.59.51-.69,1.28-.09.68-.29,1.89-.61,3.61-.47,2.52-.81,4.49-1.04,5.92-.44,2.87-.66,4.3-1.09,7.17-.5,3.36-.78,5.28-.84,5.77Z"/>
      <path class="st4" d="M374.34,250.61c1.31-1.55,2.59-2.6,3.84-3.12,1.24-.53,2.43-.55,3.57-.06.79.34,1.39.97,1.79,1.89.4.92.5,1.8.29,2.64-.4,1.6-1.17,2.14-2.31,1.64-.53-.23-.88-.88-1.03-1.93-.19-1.32-.65-2.15-1.41-2.47-.71-.3-1.56-.13-2.53.52-.97.65-1.7,1.49-2.21,2.52-.51,1.03-1.15,3.35-1.95,6.96-.73,3.3-1.04,5.24-.93,5.81.11.57.59,1.1,1.45,1.6.24.13.33.3.28.51-.08.36-.44.4-1.07.15-2.58-1.04-3.87-1.54-6.46-2.48-.46-.17-.66-.4-.6-.69.06-.27.4-.31,1.01-.13.86.25,1.47.11,1.8-.41s.9-2.69,1.7-6.5c1.18-5.59,1.79-8.98,1.83-10.18.04-1.2-.56-2.07-1.79-2.6-.51-.22-.74-.48-.68-.77.03-.15.11-.25.23-.29.12-.04.8.12,2.03.48,1.61.49,2.42.74,4.03,1.27-.1.96-.4,2.84-.89,5.64Z"/>
      <path class="st4" d="M387.88,261.16c-.29.82-.49,1.49-.63,1.99-.64,2.37-.6,4.64.07,6.83s1.81,3.68,3.45,4.53c1.59.83,3.3.83,5.15,0,.53-.22.86-.3.96-.25.21.12.26.39.14.83-.86.87-2.01,1.36-3.46,1.49-1.45.14-2.91-.18-4.4-.95-2.19-1.12-3.77-3.02-4.78-5.75-1.01-2.73-1.15-5.63-.36-8.69.85-3.29,2.43-5.63,4.79-6.97,2.36-1.34,4.59-1.48,6.62-.44,1.91.98,3.38,2.74,4.38,5.25,1,2.51,1.13,4.9.43,7.16-.11.34-.23.57-.37.69-.14.11-.69-.1-1.64-.62-4.11-2.17-6.18-3.19-10.34-5.11ZM388.23,259.86c1.77.97,3.5,1.89,5.18,2.76.45.2.67.3,1.12.49.83.4,1.52.54,2.07.42.55-.12.95-.62,1.22-1.51.42-1.38.38-2.8-.12-4.26-.5-1.46-1.3-2.48-2.4-3.04-1.01-.52-2.2-.44-3.53.25-1.34.69-2.51,2.32-3.53,4.89Z"/>
      <path class="st4" d="M409.79,283.28c-1.05.72-2.1,1.09-3.18,1.1-1.08.02-2.17-.32-3.28-1-1.31-.8-2.19-1.84-2.65-3.16-.46-1.32-.47-2.69,0-4.13.35-1.07.9-1.94,1.66-2.6.76-.66,1.51-1.01,2.24-1.06.73-.05,1.96.06,3.66.38,2.43.46,3.97.6,4.6.32.63-.28,1.11-.87,1.43-1.77.52-1.42.63-2.72.35-3.88-.29-1.16-.96-2.08-2.02-2.74-.87-.54-1.61-.72-2.19-.53-.6.19-1.25.91-1.94,2.13-.75,1.34-1.54,1.76-2.37,1.27-.3-.18-.57-.55-.81-1.12-.24-.57-.25-1.2-.03-1.9.4-1.22,1.31-1.95,2.76-2.16,1.45-.22,3.18.29,5.18,1.55,1.58.99,2.75,2.07,3.5,3.2.75,1.13,1.11,2.11,1.1,2.94-.01.82-.37,2.19-1.08,4.1-.99,2.48-1.48,3.73-2.46,6.21-.91,2.43-1.43,4.24-1.57,5.42-.15,1.18.1,1.99.74,2.42.13.09.32.18.56.29.14.07.21.11.34.18.29.2.39.44.29.7-.23.6-1.6.03-4.12-1.64-.73-.48-1.14-1.01-1.24-1.6-.1-.58.08-1.56.54-2.92ZM413.17,273.94c-.63.36-1.82.54-3.53.54-1.69,0-3,.2-3.87.62-.88.43-1.51,1.23-1.89,2.36-.34,1.02-.39,2.03-.14,3.04.25,1.01.73,1.73,1.46,2.18.75.47,1.56.62,2.42.47.86-.15,1.61-.56,2.25-1.23.63-.67,1.27-1.87,1.89-3.59.47-1.29.94-2.76,1.42-4.4Z"/>
      <path class="st4" d="M429.47,275.04c-.09.71-.23,1.33-.44,1.82-.31.72-.65,1.45-.98,2.18,1.51-.56,2.92-.76,4.2-.62,1.28.14,2.44.63,3.48,1.45.94.75,1.7,1.71,2.27,2.87.57,1.17.94,2.54,1.12,4.1,1.41-.28,2.71-.27,3.9.02,1.19.29,2.26.86,3.21,1.69,1.26,1.1,2.15,2.34,2.69,3.67.53,1.34.71,2.46.55,3.36-.16.9-.72,2.28-1.69,4.16-1.74,3.27-2.6,4.9-4.34,8.17-.62,1.2-.94,2.11-.96,2.73s.27,1.21.88,1.78c.41.38.54.7.41.97-.14.28-.55.1-1.2-.51-2.2-2.05-3.31-3.06-5.55-5.02-.55-.48-.75-.85-.62-1.12.12-.24.35-.23.67.01,1.02.79,1.78,1.09,2.27.81.49-.28,1.94-2.82,4.35-7.64,1.13-2.25,1.87-3.94,2.22-5.07.35-1.13.41-2.25.17-3.38-.24-1.12-.77-2.05-1.58-2.76-.71-.62-1.53-.97-2.44-1.04s-2.24.06-3.03.62c-1.37.98-3.3,4.81-5.6,9.8-.81,1.75-1.2,2.95-1.19,3.6.02.65.41,1.3,1.18,1.95.13.11.19.16.31.26.39.33.53.63.41.88-.13.27-.44.2-.93-.22-2.48-2.09-3.72-3.11-6.23-5.1-.63-.5-.89-.89-.76-1.18.13-.29.37-.29.73,0,.76.6,1.36.81,1.8.64.44-.17,1.12-1.14,2.04-2.91.92-1.76,1.78-3.54,2.59-5.33,1.46-3.24,2.14-5.58,2.05-7.04-.09-1.45-.66-2.6-1.7-3.42-.9-.7-1.97-.98-3.21-.81-1.23.16-2.3.85-3.19,2.05-.9,1.2-2.09,3.6-3.58,7.2-1.05,2.54-1.6,4.17-1.63,4.89-.03.72.35,1.37,1.14,1.97.31.24.5.41.54.51.05.1.03.25-.05.45-.11.25-.4.18-.89-.19-2.33-1.76-3.5-2.62-5.85-4.3-.7-.49-.99-.89-.87-1.19.1-.27.29-.32.55-.16.7.44,1.23.63,1.59.51s.89-.84,1.57-2.17c.68-1.34,1.67-3.6,2.96-6.8,1.29-3.2,2.05-5.14,2.29-5.84.24-.7.26-1.38.06-2.05-.2-.67-.75-1.32-1.6-1.96-.34-.26-.47-.52-.36-.78.07-.17.16-.25.28-.26.12,0,.77.32,1.95,1,1.18.67,2.2,1.33,3.06,1.96.21.16.55.41,1,.77Z"/>
    </g>
    <text class="st5" transform="translate(209.97 315.16) scale(.9 1)"><tspan x="0" y="0">Boutique</tspan></text>
    <path class="st2" d="M407.76,342.3c-37.6,26.92-64.37,30.38-81.87,28.58-30.21-3.11-40.53-22.73-73.48-26.38-28.31-3.13-54.29,7.64-71.38,16.85"/>
    <g>
      <path class="st3" d="M292.1,361c.35-2.9-5.17-5.81-10.16-6.02-5.42-.23-11.66,2.67-11.63,5.61.02,2.84,5.88,5.19,10.75,5.25,4.67.06,10.69-1.96,11.04-4.84Z"/>
      <path class="st3" d="M294.78,362.29c-2.39-1.76-7,1.98-9.05,6.54-2.23,4.96-2.04,12.24.53,13.66,2.48,1.38,6.72-2.95,8.6-7.49,1.8-4.35,2.29-10.98-.08-12.72Z"/>
      <path class="st3" d="M298.5,362.3c-2.78.45-3.23,6.66-1.43,11.6,1.95,5.37,7.07,10.68,9.74,9.84,2.57-.81,2.38-7.18.49-11.97-1.81-4.59-6.05-9.92-8.8-9.47Z"/>
      <path class="st3" d="M285.66,337.34c-2.8.32-3.53,6.48-1.94,11.48,1.72,5.44,6.62,10.97,9.33,10.26,2.61-.68,2.7-7.04,1.01-11.9-1.61-4.66-5.63-10.16-8.4-9.85Z"/>
      <path class="st3" d="M307.87,339.98c-2.22-1.98-7.2,1.23-9.69,5.53-2.71,4.67-3.23,11.88-.79,13.56,2.35,1.62,7.01-2.22,9.33-6.51,2.22-4.11,3.35-10.62,1.15-12.58Z"/>
      <path class="st3" d="M321.67,362.16c.49-2.87-4.9-6.05-9.89-6.52-5.42-.51-11.81,2.05-11.93,4.99-.11,2.83,5.64,5.47,10.52,5.78,4.68.3,10.81-1.4,11.29-4.24Z"/>
      <path class="st1" d="M300.52,362.77c-.96,2.48-3.73,3.56-6.2,2.4-2.46-1.16-3.68-4.11-2.72-6.6.96-2.48,3.73-3.56,6.2-2.4s3.68,4.11,2.72,6.6Z"/>
    </g>
  </g>
  <text/>
  <text></text>
</svg>